# MagicaVoxel @ Ephtracy

# group
o 

# material
mtllib car_doge_t1_middle_tire.mtl
usemtl palette

# normals
vn -1 0 0
vn 1 0 0
vn 0 0 1
vn 0 0 -1
vn 0 -1 0
vn 0 1 0

# texcoords
vt 0.294922 0.5
vt 0.533203 0.5
vt 0.658203 0.5
vt 0.662109 0.5

# verts
v 0 2.2 0
v 0 2.2 -0.2
v 0 2.5 0
v 0 2.5 -0.2
v 0.1 2.1 0
v 0.1 2.1 -0.2
v 0.1 2.2 0
v 0.1 2.2 -0.2
v 0.1 2.5 0
v 0.1 2.5 -0.2
v 0.1 2.6 0
v 0.1 2.6 -0.2
v 0.2 2 0
v 0.2 2 -0.2
v 0.2 2.1 0
v 0.2 2.1 -0.2
v 0.2 2.6 0
v 0.2 2.6 -0.2
v 0.2 2.7 0
v 0.2 2.7 -0.2
v 0.3 2.3 -0.2
v 0.3 2.3 -0.3
v 0.3 2.4 -0.2
v 0.3 2.4 -0.3
v 0.5 2.2 0
v 0.5 2.2 -0.1
v 0.5 2.3 -0.1
v 0.5 2.4 -0.1
v 0.5 2.5 0
v 0.5 2.5 -0.1
v 0.2 2.2 0
v 0.2 2.2 -0.1
v 0.2 2.3 -0.1
v 0.2 2.4 -0.1
v 0.2 2.5 0
v 0.2 2.5 -0.1
v 0.4 2.3 -0.2
v 0.4 2.3 -0.3
v 0.4 2.4 -0.2
v 0.4 2.4 -0.3
v 0.5 2 0
v 0.5 2 -0.2
v 0.5 2.1 0
v 0.5 2.1 -0.2
v 0.5 2.6 0
v 0.5 2.6 -0.2
v 0.5 2.7 0
v 0.5 2.7 -0.2
v 0.6 2.1 0
v 0.6 2.1 -0.2
v 0.6 2.2 0
v 0.6 2.2 -0.2
v 0.6 2.5 0
v 0.6 2.5 -0.2
v 0.6 2.6 0
v 0.6 2.6 -0.2
v 0.7 2.2 0
v 0.7 2.2 -0.2
v 0.7 2.5 0
v 0.7 2.5 -0.2
v 0 2.2 0
v 0 2.5 0
v 0.1 2.1 0
v 0.1 2.2 0
v 0.1 2.5 0
v 0.1 2.6 0
v 0.2 2 0
v 0.2 2.1 0
v 0.2 2.2 0
v 0.2 2.5 0
v 0.2 2.6 0
v 0.2 2.7 0
v 0.5 2 0
v 0.5 2.1 0
v 0.5 2.2 0
v 0.5 2.5 0
v 0.5 2.6 0
v 0.5 2.7 0
v 0.6 2.1 0
v 0.6 2.2 0
v 0.6 2.5 0
v 0.6 2.6 0
v 0.7 2.2 0
v 0.7 2.5 0
v 0.2 2.2 -0.1
v 0.2 2.3 -0.1
v 0.2 2.4 -0.1
v 0.2 2.5 -0.1
v 0.3 2.2 -0.1
v 0.3 2.3 -0.1
v 0.3 2.4 -0.1
v 0.3 2.5 -0.1
v 0.4 2.2 -0.1
v 0.4 2.3 -0.1
v 0.4 2.4 -0.1
v 0.4 2.5 -0.1
v 0.5 2.2 -0.1
v 0.5 2.3 -0.1
v 0.5 2.4 -0.1
v 0.5 2.5 -0.1
v 0 2.2 -0.2
v 0 2.5 -0.2
v 0.1 2.1 -0.2
v 0.1 2.2 -0.2
v 0.1 2.5 -0.2
v 0.1 2.6 -0.2
v 0.2 2 -0.2
v 0.2 2.1 -0.2
v 0.2 2.2 -0.2
v 0.2 2.3 -0.2
v 0.2 2.4 -0.2
v 0.2 2.5 -0.2
v 0.2 2.6 -0.2
v 0.2 2.7 -0.2
v 0.3 2.2 -0.2
v 0.3 2.3 -0.2
v 0.3 2.4 -0.2
v 0.3 2.5 -0.2
v 0.4 2.2 -0.2
v 0.4 2.3 -0.2
v 0.4 2.4 -0.2
v 0.4 2.5 -0.2
v 0.5 2 -0.2
v 0.5 2.1 -0.2
v 0.5 2.2 -0.2
v 0.5 2.3 -0.2
v 0.5 2.4 -0.2
v 0.5 2.5 -0.2
v 0.5 2.6 -0.2
v 0.5 2.7 -0.2
v 0.6 2.1 -0.2
v 0.6 2.2 -0.2
v 0.6 2.5 -0.2
v 0.6 2.6 -0.2
v 0.7 2.2 -0.2
v 0.7 2.5 -0.2
v 0.3 2.3 -0.3
v 0.3 2.4 -0.3
v 0.4 2.3 -0.3
v 0.4 2.4 -0.3
v 0.2 2 0
v 0.5 2 0
v 0.2 2 -0.2
v 0.5 2 -0.2
v 0.1 2.1 0
v 0.2 2.1 0
v 0.5 2.1 0
v 0.6 2.1 0
v 0.1 2.1 -0.2
v 0.2 2.1 -0.2
v 0.5 2.1 -0.2
v 0.6 2.1 -0.2
v 0 2.2 0
v 0.1 2.2 0
v 0.6 2.2 0
v 0.7 2.2 0
v 0 2.2 -0.2
v 0.1 2.2 -0.2
v 0.6 2.2 -0.2
v 0.7 2.2 -0.2
v 0.3 2.3 -0.2
v 0.4 2.3 -0.2
v 0.3 2.3 -0.3
v 0.4 2.3 -0.3
v 0.2 2.5 0
v 0.5 2.5 0
v 0.2 2.5 -0.1
v 0.3 2.5 -0.1
v 0.4 2.5 -0.1
v 0.5 2.5 -0.1
v 0.2 2.2 0
v 0.5 2.2 0
v 0.2 2.2 -0.1
v 0.3 2.2 -0.1
v 0.4 2.2 -0.1
v 0.5 2.2 -0.1
v 0.3 2.4 -0.2
v 0.4 2.4 -0.2
v 0.3 2.4 -0.3
v 0.4 2.4 -0.3
v 0 2.5 0
v 0.1 2.5 0
v 0.6 2.5 0
v 0.7 2.5 0
v 0 2.5 -0.2
v 0.1 2.5 -0.2
v 0.6 2.5 -0.2
v 0.7 2.5 -0.2
v 0.1 2.6 0
v 0.2 2.6 0
v 0.5 2.6 0
v 0.6 2.6 0
v 0.1 2.6 -0.2
v 0.2 2.6 -0.2
v 0.5 2.6 -0.2
v 0.6 2.6 -0.2
v 0.2 2.7 0
v 0.5 2.7 0
v 0.2 2.7 -0.2
v 0.5 2.7 -0.2

# faces
f 3/3/1 2/3/1 1/3/1
f 4/3/1 2/3/1 3/3/1
f 7/3/1 6/3/1 5/3/1
f 8/3/1 6/3/1 7/3/1
f 11/3/1 10/3/1 9/3/1
f 12/3/1 10/3/1 11/3/1
f 15/3/1 14/3/1 13/3/1
f 16/3/1 14/3/1 15/3/1
f 19/3/1 18/3/1 17/3/1
f 20/3/1 18/3/1 19/3/1
f 23/2/1 22/2/1 21/2/1
f 24/2/1 22/2/1 23/2/1
f 27/3/1 26/3/1 25/3/1
f 28/3/1 27/3/1 25/3/1
f 29/3/1 28/3/1 25/3/1
f 30/3/1 28/3/1 29/3/1
f 31/3/2 32/3/2 33/3/2
f 31/3/2 33/3/2 34/3/2
f 31/3/2 34/3/2 35/3/2
f 35/3/2 34/3/2 36/3/2
f 37/2/2 38/2/2 39/2/2
f 39/2/2 38/2/2 40/2/2
f 41/3/2 42/3/2 43/3/2
f 43/3/2 42/3/2 44/3/2
f 45/3/2 46/3/2 47/3/2
f 47/3/2 46/3/2 48/3/2
f 49/3/2 50/3/2 51/3/2
f 51/3/2 50/3/2 52/3/2
f 53/3/2 54/3/2 55/3/2
f 55/3/2 54/3/2 56/3/2
f 57/3/2 58/3/2 59/3/2
f 59/3/2 58/3/2 60/3/2
f 64/3/3 62/3/3 61/3/3
f 65/3/3 62/3/3 64/3/3
f 68/3/3 64/3/3 63/3/3
f 68/3/3 66/3/3 65/3/3
f 68/3/3 65/3/3 64/3/3
f 69/3/3 66/3/3 68/3/3
f 70/3/3 66/3/3 69/3/3
f 71/3/3 66/3/3 70/3/3
f 73/3/3 68/3/3 67/3/3
f 73/3/3 69/3/3 68/3/3
f 74/3/3 69/3/3 73/3/3
f 75/3/3 69/3/3 74/3/3
f 76/3/3 72/3/3 71/3/3
f 76/3/3 71/3/3 70/3/3
f 77/3/3 72/3/3 76/3/3
f 78/3/3 72/3/3 77/3/3
f 79/3/3 75/3/3 74/3/3
f 79/3/3 77/3/3 76/3/3
f 79/3/3 76/3/3 75/3/3
f 80/3/3 77/3/3 79/3/3
f 81/3/3 77/3/3 80/3/3
f 82/3/3 77/3/3 81/3/3
f 83/3/3 81/3/3 80/3/3
f 84/3/3 81/3/3 83/3/3
f 89/4/3 86/4/3 85/4/3
f 90/1/3 87/1/3 86/1/3
f 90/4/3 86/4/3 89/4/3
f 91/4/3 88/4/3 87/4/3
f 91/1/3 87/1/3 90/1/3
f 92/4/3 88/4/3 91/4/3
f 93/1/3 90/1/3 89/1/3
f 94/2/3 91/2/3 90/2/3
f 94/1/3 90/1/3 93/1/3
f 95/1/3 92/1/3 91/1/3
f 95/2/3 91/2/3 94/2/3
f 96/1/3 92/1/3 95/1/3
f 97/4/3 94/4/3 93/4/3
f 98/1/3 95/1/3 94/1/3
f 98/4/3 94/4/3 97/4/3
f 99/4/3 96/4/3 95/4/3
f 99/1/3 95/1/3 98/1/3
f 100/4/3 96/4/3 99/4/3
f 101/3/4 102/3/4 104/3/4
f 104/3/4 102/3/4 105/3/4
f 103/3/4 104/3/4 108/3/4
f 105/3/4 106/3/4 108/3/4
f 104/3/4 105/3/4 108/3/4
f 108/3/4 106/3/4 109/3/4
f 109/3/4 106/3/4 110/3/4
f 110/3/4 106/3/4 111/3/4
f 111/3/4 106/3/4 112/3/4
f 112/3/4 106/3/4 113/3/4
f 107/3/4 108/3/4 115/3/4
f 108/3/4 109/3/4 115/3/4
f 109/4/4 110/4/4 115/4/4
f 110/1/4 111/1/4 116/1/4
f 115/4/4 110/4/4 116/4/4
f 111/4/4 112/4/4 117/4/4
f 116/1/4 111/1/4 117/1/4
f 113/3/4 114/3/4 118/3/4
f 117/4/4 112/4/4 118/4/4
f 112/3/4 113/3/4 118/3/4
f 107/3/4 115/3/4 119/3/4
f 115/1/4 116/1/4 119/1/4
f 119/1/4 116/1/4 120/1/4
f 117/1/4 118/1/4 121/1/4
f 118/3/4 114/3/4 122/3/4
f 121/1/4 118/1/4 122/1/4
f 107/3/4 119/3/4 123/3/4
f 123/3/4 119/3/4 124/3/4
f 119/4/4 120/4/4 125/4/4
f 124/3/4 119/3/4 125/3/4
f 120/1/4 121/1/4 126/1/4
f 125/4/4 120/4/4 126/4/4
f 121/4/4 122/4/4 127/4/4
f 126/1/4 121/1/4 127/1/4
f 122/3/4 114/3/4 128/3/4
f 127/4/4 122/4/4 128/4/4
f 128/3/4 114/3/4 129/3/4
f 129/3/4 114/3/4 130/3/4
f 124/3/4 125/3/4 131/3/4
f 128/3/4 129/3/4 131/3/4
f 127/3/4 128/3/4 131/3/4
f 126/3/4 127/3/4 131/3/4
f 125/3/4 126/3/4 131/3/4
f 131/3/4 129/3/4 132/3/4
f 132/3/4 129/3/4 133/3/4
f 133/3/4 129/3/4 134/3/4
f 132/3/4 133/3/4 135/3/4
f 135/3/4 133/3/4 136/3/4
f 137/2/4 138/2/4 139/2/4
f 139/2/4 138/2/4 140/2/4
f 143/3/5 142/3/5 141/3/5
f 144/3/5 142/3/5 143/3/5
f 149/3/5 146/3/5 145/3/5
f 150/3/5 146/3/5 149/3/5
f 151/3/5 148/3/5 147/3/5
f 152/3/5 148/3/5 151/3/5
f 157/3/5 154/3/5 153/3/5
f 158/3/5 154/3/5 157/3/5
f 159/3/5 156/3/5 155/3/5
f 160/3/5 156/3/5 159/3/5
f 163/2/5 162/2/5 161/2/5
f 164/2/5 162/2/5 163/2/5
f 167/3/5 166/3/5 165/3/5
f 168/3/5 166/3/5 167/3/5
f 169/3/5 166/3/5 168/3/5
f 170/3/5 166/3/5 169/3/5
f 171/3/6 172/3/6 173/3/6
f 173/3/6 172/3/6 174/3/6
f 174/3/6 172/3/6 175/3/6
f 175/3/6 172/3/6 176/3/6
f 177/2/6 178/2/6 179/2/6
f 179/2/6 178/2/6 180/2/6
f 181/3/6 182/3/6 185/3/6
f 185/3/6 182/3/6 186/3/6
f 183/3/6 184/3/6 187/3/6
f 187/3/6 184/3/6 188/3/6
f 189/3/6 190/3/6 193/3/6
f 193/3/6 190/3/6 194/3/6
f 191/3/6 192/3/6 195/3/6
f 195/3/6 192/3/6 196/3/6
f 197/3/6 198/3/6 199/3/6
f 199/3/6 198/3/6 200/3/6
