# MagicaVoxel @ Ephtracy

# group
o 

# material
mtllib prop_barrier_1.mtl
usemtl palette

# normals
vn -1 0 0
vn 1 0 0
vn 0 0 1
vn 0 0 -1
vn 0 -1 0
vn 0 1 0

# texcoords
vt 0.947266 0.5
vt 0.955078 0.5
vt 0.962891 0.5

# verts
v -2.5 1.5 0.1
v -2.5 1.5 -0.2
v -2.5 1.6 0.2
v -2.5 1.6 0.1
v -2.5 1.7 0.2
v -2.5 1.7 0.1
v -2.5 1.8 0.1
v -2.5 1.8 0
v -2.5 1.9 0.1
v -2.5 1.9 0
v -2.5 2 0.2
v -2.5 2 0.1
v -2.5 2.1 0.2
v -2.5 2.1 0.1
v -2.5 2.2 0.1
v -2.5 2.2 0
v -2.5 2.3 0.1
v -2.5 2.3 0
v -2.5 2.4 0.2
v -2.5 2.4 0.1
v -2.5 2.5 0.2
v -2.5 2.5 0.1
v -2.5 2.6 0.1
v -2.5 2.6 -0.2
v -2 1.5 -0.2
v -2 1.5 -0.3
v -2 2.6 -0.2
v -2 2.6 -0.3
v 1.7 1.5 -0.2
v 1.7 1.5 -0.3
v 1.7 2.6 -0.2
v 1.7 2.6 -0.3
v -1.7 1.5 -0.2
v -1.7 1.5 -0.3
v -1.7 2.6 -0.2
v -1.7 2.6 -0.3
v 2 1.5 -0.2
v 2 1.5 -0.3
v 2 2.6 -0.2
v 2 2.6 -0.3
v 2.5 1.5 0.1
v 2.5 1.5 -0.2
v 2.5 1.6 0.2
v 2.5 1.6 0.1
v 2.5 1.7 0.2
v 2.5 1.7 0.1
v 2.5 1.8 0.1
v 2.5 1.8 0
v 2.5 1.9 0.1
v 2.5 1.9 0
v 2.5 2 0.2
v 2.5 2 0.1
v 2.5 2.1 0.2
v 2.5 2.1 0.1
v 2.5 2.2 0.1
v 2.5 2.2 0
v 2.5 2.3 0.1
v 2.5 2.3 0
v 2.5 2.4 0.2
v 2.5 2.4 0.1
v 2.5 2.5 0.2
v 2.5 2.5 0.1
v 2.5 2.6 0.1
v 2.5 2.6 -0.2
v -2.5 1.6 0.2
v -2.5 1.7 0.2
v -2.5 2 0.2
v -2.5 2.1 0.2
v -2.5 2.4 0.2
v -2.5 2.5 0.2
v -2.4 1.6 0.2
v -2.4 1.7 0.2
v -2.4 2 0.2
v -2.4 2.1 0.2
v -2.4 2.4 0.2
v -2.4 2.5 0.2
v 2.4 1.6 0.2
v 2.4 1.7 0.2
v 2.4 2 0.2
v 2.4 2.1 0.2
v 2.4 2.4 0.2
v 2.4 2.5 0.2
v 2.5 1.6 0.2
v 2.5 1.7 0.2
v 2.5 2 0.2
v 2.5 2.1 0.2
v 2.5 2.4 0.2
v 2.5 2.5 0.2
v -2.5 1.5 0.1
v -2.5 1.6 0.1
v -2.5 1.7 0.1
v -2.5 1.8 0.1
v -2.5 1.9 0.1
v -2.5 2 0.1
v -2.5 2.1 0.1
v -2.5 2.2 0.1
v -2.5 2.3 0.1
v -2.5 2.4 0.1
v -2.5 2.5 0.1
v -2.5 2.6 0.1
v -2.4 1.5 0.1
v -2.4 1.6 0.1
v -2.4 1.7 0.1
v -2.4 1.8 0.1
v -2.4 1.9 0.1
v -2.4 2 0.1
v -2.4 2.1 0.1
v -2.4 2.2 0.1
v -2.4 2.3 0.1
v -2.4 2.4 0.1
v -2.4 2.5 0.1
v -2.4 2.6 0.1
v 2.4 1.5 0.1
v 2.4 1.6 0.1
v 2.4 1.7 0.1
v 2.4 1.8 0.1
v 2.4 1.9 0.1
v 2.4 2 0.1
v 2.4 2.1 0.1
v 2.4 2.2 0.1
v 2.4 2.3 0.1
v 2.4 2.4 0.1
v 2.4 2.5 0.1
v 2.4 2.6 0.1
v 2.5 1.5 0.1
v 2.5 1.6 0.1
v 2.5 1.7 0.1
v 2.5 1.8 0.1
v 2.5 1.9 0.1
v 2.5 2 0.1
v 2.5 2.1 0.1
v 2.5 2.2 0.1
v 2.5 2.3 0.1
v 2.5 2.4 0.1
v 2.5 2.5 0.1
v 2.5 2.6 0.1
v -2.5 1.8 0
v -2.5 1.9 0
v -2.5 2.2 0
v -2.5 2.3 0
v -2.4 1.8 0
v -2.4 1.9 0
v -2.4 2.2 0
v -2.4 2.3 0
v 2.4 1.8 0
v 2.4 1.9 0
v 2.4 2.2 0
v 2.4 2.3 0
v 2.5 1.8 0
v 2.5 1.9 0
v 2.5 2.2 0
v 2.5 2.3 0
v -2.5 1.5 -0.2
v -2.5 2.6 -0.2
v -2.4 1.5 -0.2
v -2.4 2.6 -0.2
v -2 1.5 -0.2
v -2 2.6 -0.2
v -1.7 1.5 -0.2
v -1.7 2.6 -0.2
v 1.7 1.5 -0.2
v 1.7 2.6 -0.2
v 2 1.5 -0.2
v 2 2.6 -0.2
v 2.4 1.5 -0.2
v 2.4 2.6 -0.2
v 2.5 1.5 -0.2
v 2.5 2.6 -0.2
v -2 1.5 -0.3
v -2 2.6 -0.3
v -1.7 1.5 -0.3
v -1.7 2.6 -0.3
v 1.7 1.5 -0.3
v 1.7 2.6 -0.3
v 2 1.5 -0.3
v 2 2.6 -0.3
v -2.5 1.5 0.1
v -2.4 1.5 0.1
v 2.4 1.5 0.1
v 2.5 1.5 0.1
v -2.5 1.5 -0.2
v -2.4 1.5 -0.2
v -2 1.5 -0.2
v -1.7 1.5 -0.2
v 1.7 1.5 -0.2
v 2 1.5 -0.2
v 2.4 1.5 -0.2
v 2.5 1.5 -0.2
v -2 1.5 -0.3
v -1.7 1.5 -0.3
v 1.7 1.5 -0.3
v 2 1.5 -0.3
v -2.5 1.6 0.2
v -2.4 1.6 0.2
v 2.4 1.6 0.2
v 2.5 1.6 0.2
v -2.5 1.6 0.1
v -2.4 1.6 0.1
v 2.4 1.6 0.1
v 2.5 1.6 0.1
v -2.5 1.9 0.1
v -2.4 1.9 0.1
v 2.4 1.9 0.1
v 2.5 1.9 0.1
v -2.5 1.9 0
v -2.4 1.9 0
v 2.4 1.9 0
v 2.5 1.9 0
v -2.5 2 0.2
v -2.4 2 0.2
v 2.4 2 0.2
v 2.5 2 0.2
v -2.5 2 0.1
v -2.4 2 0.1
v 2.4 2 0.1
v 2.5 2 0.1
v -2.5 2.3 0.1
v -2.4 2.3 0.1
v 2.4 2.3 0.1
v 2.5 2.3 0.1
v -2.5 2.3 0
v -2.4 2.3 0
v 2.4 2.3 0
v 2.5 2.3 0
v -2.5 2.4 0.2
v -2.4 2.4 0.2
v 2.4 2.4 0.2
v 2.5 2.4 0.2
v -2.5 2.4 0.1
v -2.4 2.4 0.1
v 2.4 2.4 0.1
v 2.5 2.4 0.1
v -2.5 1.7 0.2
v -2.4 1.7 0.2
v 2.4 1.7 0.2
v 2.5 1.7 0.2
v -2.5 1.7 0.1
v -2.4 1.7 0.1
v 2.4 1.7 0.1
v 2.5 1.7 0.1
v -2.5 1.8 0.1
v -2.4 1.8 0.1
v 2.4 1.8 0.1
v 2.5 1.8 0.1
v -2.5 1.8 0
v -2.4 1.8 0
v 2.4 1.8 0
v 2.5 1.8 0
v -2.5 2.1 0.2
v -2.4 2.1 0.2
v 2.4 2.1 0.2
v 2.5 2.1 0.2
v -2.5 2.1 0.1
v -2.4 2.1 0.1
v 2.4 2.1 0.1
v 2.5 2.1 0.1
v -2.5 2.2 0.1
v -2.4 2.2 0.1
v 2.4 2.2 0.1
v 2.5 2.2 0.1
v -2.5 2.2 0
v -2.4 2.2 0
v 2.4 2.2 0
v 2.5 2.2 0
v -2.5 2.5 0.2
v -2.4 2.5 0.2
v 2.4 2.5 0.2
v 2.5 2.5 0.2
v -2.5 2.5 0.1
v -2.4 2.5 0.1
v 2.4 2.5 0.1
v 2.5 2.5 0.1
v -2.5 2.6 0.1
v -2.4 2.6 0.1
v 2.4 2.6 0.1
v 2.5 2.6 0.1
v -2.5 2.6 -0.2
v -2.4 2.6 -0.2
v -2 2.6 -0.2
v -1.7 2.6 -0.2
v 1.7 2.6 -0.2
v 2 2.6 -0.2
v 2.4 2.6 -0.2
v 2.5 2.6 -0.2
v -2 2.6 -0.3
v -1.7 2.6 -0.3
v 1.7 2.6 -0.3
v 2 2.6 -0.3

# faces
f 4/2/1 2/2/1 1/2/1
f 5/2/1 4/2/1 3/2/1
f 6/2/1 2/2/1 4/2/1
f 6/2/1 4/2/1 5/2/1
f 7/2/1 2/2/1 6/2/1
f 8/2/1 2/2/1 7/2/1
f 10/2/1 2/2/1 8/2/1
f 12/2/1 10/2/1 9/2/1
f 13/2/1 12/2/1 11/2/1
f 14/2/1 10/2/1 12/2/1
f 14/2/1 12/2/1 13/2/1
f 15/2/1 10/2/1 14/2/1
f 16/2/1 2/2/1 10/2/1
f 16/2/1 10/2/1 15/2/1
f 18/2/1 2/2/1 16/2/1
f 20/2/1 18/2/1 17/2/1
f 21/2/1 20/2/1 19/2/1
f 22/2/1 18/2/1 20/2/1
f 22/2/1 20/2/1 21/2/1
f 23/2/1 18/2/1 22/2/1
f 24/2/1 2/2/1 18/2/1
f 24/2/1 18/2/1 23/2/1
f 27/3/1 26/3/1 25/3/1
f 28/3/1 26/3/1 27/3/1
f 31/3/1 30/3/1 29/3/1
f 32/3/1 30/3/1 31/3/1
f 33/3/2 34/3/2 35/3/2
f 35/3/2 34/3/2 36/3/2
f 37/3/2 38/3/2 39/3/2
f 39/3/2 38/3/2 40/3/2
f 41/2/2 42/2/2 44/2/2
f 43/2/2 44/2/2 45/2/2
f 44/2/2 42/2/2 46/2/2
f 45/2/2 44/2/2 46/2/2
f 46/2/2 42/2/2 47/2/2
f 47/2/2 42/2/2 48/2/2
f 48/2/2 42/2/2 50/2/2
f 49/2/2 50/2/2 52/2/2
f 51/2/2 52/2/2 53/2/2
f 52/2/2 50/2/2 54/2/2
f 53/2/2 52/2/2 54/2/2
f 54/2/2 50/2/2 55/2/2
f 50/2/2 42/2/2 56/2/2
f 55/2/2 50/2/2 56/2/2
f 56/2/2 42/2/2 58/2/2
f 57/2/2 58/2/2 60/2/2
f 59/2/2 60/2/2 61/2/2
f 60/2/2 58/2/2 62/2/2
f 61/2/2 60/2/2 62/2/2
f 62/2/2 58/2/2 63/2/2
f 58/2/2 42/2/2 64/2/2
f 63/2/2 58/2/2 64/2/2
f 71/2/3 66/2/3 65/2/3
f 72/2/3 66/2/3 71/2/3
f 73/2/3 68/2/3 67/2/3
f 74/2/3 68/2/3 73/2/3
f 75/2/3 70/2/3 69/2/3
f 76/2/3 70/2/3 75/2/3
f 77/1/3 72/1/3 71/1/3
f 78/1/3 72/1/3 77/1/3
f 79/1/3 74/1/3 73/1/3
f 80/1/3 74/1/3 79/1/3
f 81/1/3 76/1/3 75/1/3
f 82/1/3 76/1/3 81/1/3
f 83/2/3 78/2/3 77/2/3
f 84/2/3 78/2/3 83/2/3
f 85/2/3 80/2/3 79/2/3
f 86/2/3 80/2/3 85/2/3
f 87/2/3 82/2/3 81/2/3
f 88/2/3 82/2/3 87/2/3
f 101/2/3 90/2/3 89/2/3
f 102/2/3 90/2/3 101/2/3
f 103/2/3 92/2/3 91/2/3
f 104/2/3 92/2/3 103/2/3
f 105/2/3 94/2/3 93/2/3
f 106/2/3 94/2/3 105/2/3
f 107/2/3 96/2/3 95/2/3
f 108/2/3 96/2/3 107/2/3
f 109/2/3 98/2/3 97/2/3
f 110/2/3 98/2/3 109/2/3
f 111/2/3 100/2/3 99/2/3
f 112/2/3 100/2/3 111/2/3
f 113/1/3 102/1/3 101/1/3
f 114/1/3 102/1/3 113/1/3
f 115/1/3 104/1/3 103/1/3
f 116/1/3 104/1/3 115/1/3
f 117/1/3 106/1/3 105/1/3
f 118/1/3 106/1/3 117/1/3
f 119/1/3 108/1/3 107/1/3
f 120/1/3 108/1/3 119/1/3
f 121/1/3 110/1/3 109/1/3
f 122/1/3 110/1/3 121/1/3
f 123/1/3 112/1/3 111/1/3
f 124/1/3 112/1/3 123/1/3
f 125/2/3 114/2/3 113/2/3
f 126/2/3 114/2/3 125/2/3
f 127/2/3 116/2/3 115/2/3
f 128/2/3 116/2/3 127/2/3
f 129/2/3 118/2/3 117/2/3
f 130/2/3 118/2/3 129/2/3
f 131/2/3 120/2/3 119/2/3
f 132/2/3 120/2/3 131/2/3
f 133/2/3 122/2/3 121/2/3
f 134/2/3 122/2/3 133/2/3
f 135/2/3 124/2/3 123/2/3
f 136/2/3 124/2/3 135/2/3
f 141/2/3 138/2/3 137/2/3
f 142/2/3 138/2/3 141/2/3
f 143/2/3 140/2/3 139/2/3
f 144/2/3 140/2/3 143/2/3
f 145/1/3 142/1/3 141/1/3
f 146/1/3 142/1/3 145/1/3
f 147/1/3 144/1/3 143/1/3
f 148/1/3 144/1/3 147/1/3
f 149/2/3 146/2/3 145/2/3
f 150/2/3 146/2/3 149/2/3
f 151/2/3 148/2/3 147/2/3
f 152/2/3 148/2/3 151/2/3
f 153/2/4 154/2/4 155/2/4
f 155/2/4 154/2/4 156/2/4
f 155/1/4 156/1/4 157/1/4
f 157/1/4 156/1/4 158/1/4
f 159/1/4 160/1/4 161/1/4
f 161/1/4 160/1/4 162/1/4
f 163/1/4 164/1/4 165/1/4
f 165/1/4 164/1/4 166/1/4
f 165/2/4 166/2/4 167/2/4
f 167/2/4 166/2/4 168/2/4
f 169/3/4 170/3/4 171/3/4
f 171/3/4 170/3/4 172/3/4
f 173/3/4 174/3/4 175/3/4
f 175/3/4 174/3/4 176/3/4
f 181/2/5 178/2/5 177/2/5
f 182/1/5 179/1/5 178/1/5
f 182/2/5 178/2/5 181/2/5
f 183/1/5 179/1/5 182/1/5
f 184/1/5 179/1/5 183/1/5
f 185/1/5 179/1/5 184/1/5
f 186/1/5 179/1/5 185/1/5
f 187/2/5 180/2/5 179/2/5
f 187/1/5 179/1/5 186/1/5
f 188/2/5 180/2/5 187/2/5
f 189/3/5 184/3/5 183/3/5
f 190/3/5 184/3/5 189/3/5
f 191/3/5 186/3/5 185/3/5
f 192/3/5 186/3/5 191/3/5
f 197/2/5 194/2/5 193/2/5
f 198/1/5 195/1/5 194/1/5
f 198/2/5 194/2/5 197/2/5
f 199/2/5 196/2/5 195/2/5
f 199/1/5 195/1/5 198/1/5
f 200/2/5 196/2/5 199/2/5
f 205/2/5 202/2/5 201/2/5
f 206/1/5 203/1/5 202/1/5
f 206/2/5 202/2/5 205/2/5
f 207/2/5 204/2/5 203/2/5
f 207/1/5 203/1/5 206/1/5
f 208/2/5 204/2/5 207/2/5
f 213/2/5 210/2/5 209/2/5
f 214/1/5 211/1/5 210/1/5
f 214/2/5 210/2/5 213/2/5
f 215/2/5 212/2/5 211/2/5
f 215/1/5 211/1/5 214/1/5
f 216/2/5 212/2/5 215/2/5
f 221/2/5 218/2/5 217/2/5
f 222/1/5 219/1/5 218/1/5
f 222/2/5 218/2/5 221/2/5
f 223/2/5 220/2/5 219/2/5
f 223/1/5 219/1/5 222/1/5
f 224/2/5 220/2/5 223/2/5
f 229/2/5 226/2/5 225/2/5
f 230/1/5 227/1/5 226/1/5
f 230/2/5 226/2/5 229/2/5
f 231/2/5 228/2/5 227/2/5
f 231/1/5 227/1/5 230/1/5
f 232/2/5 228/2/5 231/2/5
f 233/2/6 234/2/6 237/2/6
f 234/1/6 235/1/6 238/1/6
f 237/2/6 234/2/6 238/2/6
f 235/2/6 236/2/6 239/2/6
f 238/1/6 235/1/6 239/1/6
f 239/2/6 236/2/6 240/2/6
f 241/2/6 242/2/6 245/2/6
f 242/1/6 243/1/6 246/1/6
f 245/2/6 242/2/6 246/2/6
f 243/2/6 244/2/6 247/2/6
f 246/1/6 243/1/6 247/1/6
f 247/2/6 244/2/6 248/2/6
f 249/2/6 250/2/6 253/2/6
f 250/1/6 251/1/6 254/1/6
f 253/2/6 250/2/6 254/2/6
f 251/2/6 252/2/6 255/2/6
f 254/1/6 251/1/6 255/1/6
f 255/2/6 252/2/6 256/2/6
f 257/2/6 258/2/6 261/2/6
f 258/1/6 259/1/6 262/1/6
f 261/2/6 258/2/6 262/2/6
f 259/2/6 260/2/6 263/2/6
f 262/1/6 259/1/6 263/1/6
f 263/2/6 260/2/6 264/2/6
f 265/2/6 266/2/6 269/2/6
f 266/1/6 267/1/6 270/1/6
f 269/2/6 266/2/6 270/2/6
f 267/2/6 268/2/6 271/2/6
f 270/1/6 267/1/6 271/1/6
f 271/2/6 268/2/6 272/2/6
f 273/2/6 274/2/6 277/2/6
f 274/1/6 275/1/6 278/1/6
f 277/2/6 274/2/6 278/2/6
f 278/1/6 275/1/6 279/1/6
f 279/1/6 275/1/6 280/1/6
f 280/1/6 275/1/6 281/1/6
f 281/1/6 275/1/6 282/1/6
f 275/2/6 276/2/6 283/2/6
f 282/1/6 275/1/6 283/1/6
f 283/2/6 276/2/6 284/2/6
f 279/3/6 280/3/6 285/3/6
f 285/3/6 280/3/6 286/3/6
f 281/3/6 282/3/6 287/3/6
f 287/3/6 282/3/6 288/3/6
