# MagicaVoxel @ Ephtracy

# group
o 

# material
mtllib prop_bench_t1.mtl
usemtl palette

# normals
vn -1 0 0
vn 1 0 0
vn 0 0 1
vn 0 0 -1
vn 0 -1 0
vn 0 1 0

# texcoords
vt 0.291016 0.5
vt 0.779297 0.5

# verts
v -1.2 -0.1 -0.3
v -1.2 -0.1 -0.4
v -1.2 -0.1 -0.9
v -1.2 -0.1 -1
v -1.2 0.1 -0.3
v -1.2 0.1 -0.4
v -1.2 0.1 -0.9
v -1.2 0.1 -1
v -1.2 0.2 -0.4
v -1.2 0.2 -0.6
v -1.2 0.2 -0.7
v -1.2 0.2 -0.9
v -1.2 0.3 -0.4
v -1.2 0.3 -0.6
v -1.2 0.3 -0.7
v -1.2 0.3 -0.9
v -1.2 0.4 -0.9
v -1.2 0.4 -1
v -1.2 0.6 -0.9
v -1.2 0.6 -1
v -1.2 0.7 -0.9
v -1.2 0.7 -1
v -1.2 0.9 -0.9
v -1.2 0.9 -1
v -1.1 0.1 -0.9
v -1.1 0.1 -1
v -1.1 0.2 -0.9
v -1.1 0.3 -0.9
v -1.1 0.4 -0.9
v -1.1 0.4 -1
v -1.1 0.4 -1.1
v -1.1 0.6 -1
v -1.1 0.7 -1
v -1.1 0.8 -1
v -1.1 0.8 -1.1
v 0.0999999 0.1 -0.8
v 0.0999999 0.1 -1
v 0.0999999 0.2 -0.8
v 0.0999999 0.2 -0.9
v 0.0999999 0.3 -0.9
v 0.0999999 0.4 -0.9
v 0.0999999 0.4 -1
v 0.0999999 0.4 -1.1
v 0.0999999 0.6 -1
v 0.0999999 0.7 -1
v 0.0999999 0.8 -1
v 0.0999999 0.8 -1.1
v 1.3 0.1 -0.9
v 1.3 0.1 -1
v 1.3 0.2 -0.9
v 1.3 0.3 -0.9
v 1.3 0.4 -0.9
v 1.3 0.4 -1
v 1.3 0.4 -1.1
v 1.3 0.6 -1
v 1.3 0.7 -1
v 1.3 0.8 -1
v 1.3 0.8 -1.1
v 1.4 -0.1 -0.3
v 1.4 -0.1 -0.4
v 1.4 -0.1 -0.9
v 1.4 -0.1 -1
v 1.4 0.1 -0.3
v 1.4 0.1 -0.4
v 1.4 0.1 -0.5
v 1.4 0.1 -0.6
v 1.4 0.1 -0.7
v 1.4 0.1 -0.8
v 1.4 0.1 -0.9
v 1.4 0.1 -1
v 1.4 0.2 -0.4
v 1.4 0.2 -0.5
v 1.4 0.2 -0.6
v 1.4 0.2 -0.7
v 1.4 0.2 -0.8
v 1.4 0.2 -0.9
v -1 -0.1 -0.3
v -1 -0.1 -0.4
v -1 -0.1 -0.9
v -1 -0.1 -1
v -1 0.1 -0.3
v -1 0.1 -0.4
v -1 0.1 -0.5
v -1 0.1 -0.6
v -1 0.1 -0.7
v -1 0.1 -0.8
v -1 0.1 -0.9
v -1 0.1 -1
v -1 0.2 -0.4
v -1 0.2 -0.5
v -1 0.2 -0.6
v -1 0.2 -0.7
v -1 0.2 -0.8
v -1 0.2 -0.9
v -0.9 0.1 -0.9
v -0.9 0.1 -1
v -0.9 0.2 -0.9
v -0.9 0.3 -0.9
v -0.9 0.4 -0.9
v -0.9 0.4 -1
v -0.9 0.4 -1.1
v -0.9 0.6 -1
v -0.9 0.7 -1
v -0.9 0.8 -1
v -0.9 0.8 -1.1
v 0.3 0.1 -0.8
v 0.3 0.1 -1
v 0.3 0.2 -0.8
v 0.3 0.2 -0.9
v 0.3 0.3 -0.9
v 0.3 0.4 -0.9
v 0.3 0.4 -1
v 0.3 0.4 -1.1
v 0.3 0.6 -1
v 0.3 0.7 -1
v 0.3 0.8 -1
v 0.3 0.8 -1.1
v 1.5 0.1 -0.9
v 1.5 0.1 -1
v 1.5 0.2 -0.9
v 1.5 0.3 -0.9
v 1.5 0.4 -0.9
v 1.5 0.4 -1
v 1.5 0.4 -1.1
v 1.5 0.6 -1
v 1.5 0.7 -1
v 1.5 0.8 -1
v 1.5 0.8 -1.1
v 1.6 -0.1 -0.3
v 1.6 -0.1 -0.4
v 1.6 -0.1 -0.9
v 1.6 -0.1 -1
v 1.6 0.1 -0.3
v 1.6 0.1 -0.4
v 1.6 0.1 -0.9
v 1.6 0.1 -1
v 1.6 0.2 -0.4
v 1.6 0.2 -0.6
v 1.6 0.2 -0.7
v 1.6 0.2 -0.9
v 1.6 0.3 -0.4
v 1.6 0.3 -0.6
v 1.6 0.3 -0.7
v 1.6 0.3 -0.9
v 1.6 0.4 -0.9
v 1.6 0.4 -1
v 1.6 0.6 -0.9
v 1.6 0.6 -1
v 1.6 0.7 -0.9
v 1.6 0.7 -1
v 1.6 0.9 -0.9
v 1.6 0.9 -1
v -1.2 -0.1 -0.3
v -1.2 0.1 -0.3
v -1 -0.1 -0.3
v -1 0.1 -0.3
v 1.4 -0.1 -0.3
v 1.4 0.1 -0.3
v 1.6 -0.1 -0.3
v 1.6 0.1 -0.3
v -1.2 0.1 -0.4
v -1.2 0.2 -0.4
v -1.2 0.3 -0.4
v -1 0.1 -0.4
v -1 0.2 -0.4
v 1.4 0.1 -0.4
v 1.4 0.2 -0.4
v 1.6 0.1 -0.4
v 1.6 0.2 -0.4
v 1.6 0.3 -0.4
v -1 0.1 -0.5
v -1 0.2 -0.5
v 1.4 0.1 -0.5
v 1.4 0.2 -0.5
v -1.2 0.2 -0.7
v -1.2 0.3 -0.7
v -1 0.1 -0.7
v -1 0.2 -0.7
v 1.4 0.1 -0.7
v 1.4 0.2 -0.7
v 1.6 0.2 -0.7
v 1.6 0.3 -0.7
v -1.2 -0.1 -0.9
v -1.2 0.1 -0.9
v -1.2 0.4 -0.9
v -1.2 0.6 -0.9
v -1.2 0.7 -0.9
v -1.2 0.9 -0.9
v -1.1 0.3 -0.9
v -1.1 0.4 -0.9
v -1 -0.1 -0.9
v -1 0.1 -0.9
v -1 0.2 -0.9
v -0.9 0.1 -0.9
v -0.9 0.2 -0.9
v -0.9 0.3 -0.9
v -0.9 0.4 -0.9
v 0.0999999 0.3 -0.9
v 0.0999999 0.4 -0.9
v 0.3 0.3 -0.9
v 0.3 0.4 -0.9
v 1.3 0.1 -0.9
v 1.3 0.2 -0.9
v 1.3 0.3 -0.9
v 1.3 0.4 -0.9
v 1.4 -0.1 -0.9
v 1.4 0.1 -0.9
v 1.4 0.2 -0.9
v 1.5 0.3 -0.9
v 1.5 0.4 -0.9
v 1.6 -0.1 -0.9
v 1.6 0.1 -0.9
v 1.6 0.4 -0.9
v 1.6 0.6 -0.9
v 1.6 0.7 -0.9
v 1.6 0.9 -0.9
v -1.1 0.6 -1
v -1.1 0.7 -1
v -0.9 0.6 -1
v -0.9 0.7 -1
v 0.0999999 0.6 -1
v 0.0999999 0.7 -1
v 0.3 0.6 -1
v 0.3 0.7 -1
v 1.3 0.6 -1
v 1.3 0.7 -1
v 1.5 0.6 -1
v 1.5 0.7 -1
v -1.2 -0.1 -0.4
v -1.2 0.1 -0.4
v -1 -0.1 -0.4
v -1 0.1 -0.4
v 1.4 -0.1 -0.4
v 1.4 0.1 -0.4
v 1.6 -0.1 -0.4
v 1.6 0.1 -0.4
v -1.2 0.2 -0.6
v -1.2 0.3 -0.6
v -1 0.1 -0.6
v -1 0.2 -0.6
v 1.4 0.1 -0.6
v 1.4 0.2 -0.6
v 1.6 0.2 -0.6
v 1.6 0.3 -0.6
v -1 0.1 -0.8
v -1 0.2 -0.8
v 0.0999999 0.1 -0.8
v 0.0999999 0.2 -0.8
v 0.3 0.1 -0.8
v 0.3 0.2 -0.8
v 1.4 0.1 -0.8
v 1.4 0.2 -0.8
v -1.2 0.1 -0.9
v -1.2 0.2 -0.9
v -1.2 0.3 -0.9
v -1.1 0.1 -0.9
v -1.1 0.2 -0.9
v -1.1 0.3 -0.9
v -0.9 0.2 -0.9
v -0.9 0.3 -0.9
v 0.0999999 0.2 -0.9
v 0.0999999 0.3 -0.9
v 0.3 0.2 -0.9
v 0.3 0.3 -0.9
v 1.3 0.2 -0.9
v 1.3 0.3 -0.9
v 1.5 0.1 -0.9
v 1.5 0.2 -0.9
v 1.5 0.3 -0.9
v 1.6 0.1 -0.9
v 1.6 0.2 -0.9
v 1.6 0.3 -0.9
v -1.2 -0.1 -1
v -1.2 0.1 -1
v -1.2 0.4 -1
v -1.2 0.6 -1
v -1.2 0.7 -1
v -1.2 0.9 -1
v -1.1 0.1 -1
v -1.1 0.4 -1
v -1.1 0.6 -1
v -1.1 0.7 -1
v -1.1 0.8 -1
v -1 -0.1 -1
v -1 0.1 -1
v -0.9 0.1 -1
v -0.9 0.4 -1
v -0.9 0.6 -1
v -0.9 0.7 -1
v -0.9 0.8 -1
v 0.0999999 0.1 -1
v 0.0999999 0.4 -1
v 0.0999999 0.6 -1
v 0.0999999 0.7 -1
v 0.0999999 0.8 -1
v 0.3 0.1 -1
v 0.3 0.4 -1
v 0.3 0.6 -1
v 0.3 0.7 -1
v 0.3 0.8 -1
v 1.3 0.1 -1
v 1.3 0.4 -1
v 1.3 0.6 -1
v 1.3 0.7 -1
v 1.3 0.8 -1
v 1.4 -0.1 -1
v 1.4 0.1 -1
v 1.5 0.1 -1
v 1.5 0.4 -1
v 1.5 0.6 -1
v 1.5 0.7 -1
v 1.5 0.8 -1
v 1.6 -0.1 -1
v 1.6 0.1 -1
v 1.6 0.4 -1
v 1.6 0.6 -1
v 1.6 0.7 -1
v 1.6 0.9 -1
v -1.1 0.4 -1.1
v -1.1 0.8 -1.1
v -0.9 0.4 -1.1
v -0.9 0.8 -1.1
v 0.0999999 0.4 -1.1
v 0.0999999 0.8 -1.1
v 0.3 0.4 -1.1
v 0.3 0.8 -1.1
v 1.3 0.4 -1.1
v 1.3 0.8 -1.1
v 1.5 0.4 -1.1
v 1.5 0.8 -1.1
v -1.2 -0.1 -0.3
v -1 -0.1 -0.3
v 1.4 -0.1 -0.3
v 1.6 -0.1 -0.3
v -1.2 -0.1 -0.4
v -1 -0.1 -0.4
v 1.4 -0.1 -0.4
v 1.6 -0.1 -0.4
v -1.2 -0.1 -0.9
v -1 -0.1 -0.9
v 1.4 -0.1 -0.9
v 1.6 -0.1 -0.9
v -1.2 -0.1 -1
v -1 -0.1 -1
v 1.4 -0.1 -1
v 1.6 -0.1 -1
v -1.2 0.1 -0.4
v -1 0.1 -0.4
v 1.4 0.1 -0.4
v 1.6 0.1 -0.4
v -1 0.1 -0.5
v 1.4 0.1 -0.5
v -1 0.1 -0.6
v 1.4 0.1 -0.6
v -1 0.1 -0.7
v 1.4 0.1 -0.7
v -1 0.1 -0.8
v 0.0999999 0.1 -0.8
v 0.3 0.1 -0.8
v 1.4 0.1 -0.8
v -1.2 0.1 -0.9
v -1 0.1 -0.9
v -0.9 0.1 -0.9
v 1.3 0.1 -0.9
v 1.4 0.1 -0.9
v 1.6 0.1 -0.9
v -1 0.1 -1
v -0.9 0.1 -1
v 0.0999999 0.1 -1
v 0.3 0.1 -1
v 1.3 0.1 -1
v 1.4 0.1 -1
v -1 0.2 -0.4
v 1.4 0.2 -0.4
v -1 0.2 -0.5
v 1.4 0.2 -0.5
v -1 0.2 -0.8
v 0.0999999 0.2 -0.8
v 0.3 0.2 -0.8
v 1.4 0.2 -0.8
v -1 0.2 -0.9
v -0.9 0.2 -0.9
v 0.0999999 0.2 -0.9
v 0.3 0.2 -0.9
v 1.3 0.2 -0.9
v 1.4 0.2 -0.9
v -1.2 0.4 -0.9
v -1.1 0.4 -0.9
v -0.9 0.4 -0.9
v 0.0999999 0.4 -0.9
v 0.3 0.4 -0.9
v 1.3 0.4 -0.9
v 1.5 0.4 -0.9
v 1.6 0.4 -0.9
v -1.2 0.4 -1
v -1.1 0.4 -1
v -0.9 0.4 -1
v 0.0999999 0.4 -1
v 0.3 0.4 -1
v 1.3 0.4 -1
v 1.5 0.4 -1
v 1.6 0.4 -1
v -1.1 0.4 -1.1
v -0.9 0.4 -1.1
v 0.0999999 0.4 -1.1
v 0.3 0.4 -1.1
v 1.3 0.4 -1.1
v 1.5 0.4 -1.1
v -1.2 0.7 -0.9
v 1.6 0.7 -0.9
v -1.2 0.7 -1
v -1.1 0.7 -1
v -0.9 0.7 -1
v 0.0999999 0.7 -1
v 0.3 0.7 -1
v 1.3 0.7 -1
v 1.5 0.7 -1
v 1.6 0.7 -1
v -1.2 0.1 -0.3
v -1 0.1 -0.3
v 1.4 0.1 -0.3
v 1.6 0.1 -0.3
v -1.2 0.1 -0.4
v -1 0.1 -0.4
v 1.4 0.1 -0.4
v 1.6 0.1 -0.4
v -1.2 0.1 -0.9
v -1.1 0.1 -0.9
v 1.5 0.1 -0.9
v 1.6 0.1 -0.9
v -1.2 0.1 -1
v -1.1 0.1 -1
v 1.5 0.1 -1
v 1.6 0.1 -1
v -1.2 0.2 -0.6
v -1 0.2 -0.6
v 1.4 0.2 -0.6
v 1.6 0.2 -0.6
v -1.2 0.2 -0.7
v -1 0.2 -0.7
v 1.4 0.2 -0.7
v 1.6 0.2 -0.7
v -1.2 0.3 -0.4
v 1.6 0.3 -0.4
v -1.2 0.3 -0.6
v 1.6 0.3 -0.6
v -1.2 0.3 -0.7
v 1.6 0.3 -0.7
v -1.2 0.3 -0.9
v -1.1 0.3 -0.9
v -0.9 0.3 -0.9
v 0.0999999 0.3 -0.9
v 0.3 0.3 -0.9
v 1.3 0.3 -0.9
v 1.5 0.3 -0.9
v 1.6 0.3 -0.9
v -1.2 0.6 -0.9
v 1.6 0.6 -0.9
v -1.2 0.6 -1
v -1.1 0.6 -1
v -0.9 0.6 -1
v 0.0999999 0.6 -1
v 0.3 0.6 -1
v 1.3 0.6 -1
v 1.5 0.6 -1
v 1.6 0.6 -1
v -1.1 0.8 -1
v -0.9 0.8 -1
v 0.0999999 0.8 -1
v 0.3 0.8 -1
v 1.3 0.8 -1
v 1.5 0.8 -1
v -1.1 0.8 -1.1
v -0.9 0.8 -1.1
v 0.0999999 0.8 -1.1
v 0.3 0.8 -1.1
v 1.3 0.8 -1.1
v 1.5 0.8 -1.1
v -1.2 0.9 -0.9
v 1.6 0.9 -0.9
v -1.2 0.9 -1
v 1.6 0.9 -1

# faces
f 5/1/1 2/1/1 1/1/1
f 6/1/1 2/1/1 5/1/1
f 7/1/1 4/1/1 3/1/1
f 8/1/1 4/1/1 7/1/1
f 9/1/1 7/1/1 6/1/1
f 10/1/1 7/1/1 9/1/1
f 11/1/1 7/1/1 10/1/1
f 12/1/1 7/1/1 11/1/1
f 13/2/1 10/2/1 9/2/1
f 14/2/1 10/2/1 13/2/1
f 15/2/1 12/2/1 11/2/1
f 16/2/1 12/2/1 15/2/1
f 19/2/1 18/2/1 17/2/1
f 20/2/1 18/2/1 19/2/1
f 23/2/1 22/2/1 21/2/1
f 24/2/1 22/2/1 23/2/1
f 27/1/1 26/1/1 25/1/1
f 28/1/1 26/1/1 27/1/1
f 29/1/1 26/1/1 28/1/1
f 30/1/1 26/1/1 29/1/1
f 32/1/1 31/1/1 30/1/1
f 33/1/1 31/1/1 32/1/1
f 34/1/1 31/1/1 33/1/1
f 35/1/1 31/1/1 34/1/1
f 38/1/1 37/1/1 36/1/1
f 39/1/1 37/1/1 38/1/1
f 40/1/1 37/1/1 39/1/1
f 41/1/1 37/1/1 40/1/1
f 42/1/1 37/1/1 41/1/1
f 44/1/1 43/1/1 42/1/1
f 45/1/1 43/1/1 44/1/1
f 46/1/1 43/1/1 45/1/1
f 47/1/1 43/1/1 46/1/1
f 50/1/1 49/1/1 48/1/1
f 51/1/1 49/1/1 50/1/1
f 52/1/1 49/1/1 51/1/1
f 53/1/1 49/1/1 52/1/1
f 55/1/1 54/1/1 53/1/1
f 56/1/1 54/1/1 55/1/1
f 57/1/1 54/1/1 56/1/1
f 58/1/1 54/1/1 57/1/1
f 63/1/1 60/1/1 59/1/1
f 64/1/1 60/1/1 63/1/1
f 69/1/1 62/1/1 61/1/1
f 70/1/1 62/1/1 69/1/1
f 71/1/1 65/1/1 64/1/1
f 72/1/1 65/1/1 71/1/1
f 73/1/1 67/1/1 66/1/1
f 74/1/1 67/1/1 73/1/1
f 75/1/1 69/1/1 68/1/1
f 76/1/1 69/1/1 75/1/1
f 77/1/2 78/1/2 81/1/2
f 81/1/2 78/1/2 82/1/2
f 79/1/2 80/1/2 87/1/2
f 87/1/2 80/1/2 88/1/2
f 82/1/2 83/1/2 89/1/2
f 89/1/2 83/1/2 90/1/2
f 84/1/2 85/1/2 91/1/2
f 91/1/2 85/1/2 92/1/2
f 86/1/2 87/1/2 93/1/2
f 93/1/2 87/1/2 94/1/2
f 95/1/2 96/1/2 97/1/2
f 97/1/2 96/1/2 98/1/2
f 98/1/2 96/1/2 99/1/2
f 99/1/2 96/1/2 100/1/2
f 100/1/2 101/1/2 102/1/2
f 102/1/2 101/1/2 103/1/2
f 103/1/2 101/1/2 104/1/2
f 104/1/2 101/1/2 105/1/2
f 106/1/2 107/1/2 108/1/2
f 108/1/2 107/1/2 109/1/2
f 109/1/2 107/1/2 110/1/2
f 110/1/2 107/1/2 111/1/2
f 111/1/2 107/1/2 112/1/2
f 112/1/2 113/1/2 114/1/2
f 114/1/2 113/1/2 115/1/2
f 115/1/2 113/1/2 116/1/2
f 116/1/2 113/1/2 117/1/2
f 118/1/2 119/1/2 120/1/2
f 120/1/2 119/1/2 121/1/2
f 121/1/2 119/1/2 122/1/2
f 122/1/2 119/1/2 123/1/2
f 123/1/2 124/1/2 125/1/2
f 125/1/2 124/1/2 126/1/2
f 126/1/2 124/1/2 127/1/2
f 127/1/2 124/1/2 128/1/2
f 129/1/2 130/1/2 133/1/2
f 133/1/2 130/1/2 134/1/2
f 131/1/2 132/1/2 135/1/2
f 135/1/2 132/1/2 136/1/2
f 134/1/2 135/1/2 137/1/2
f 137/1/2 135/1/2 138/1/2
f 138/1/2 135/1/2 139/1/2
f 139/1/2 135/1/2 140/1/2
f 137/2/2 138/2/2 141/2/2
f 141/2/2 138/2/2 142/2/2
f 139/2/2 140/2/2 143/2/2
f 143/2/2 140/2/2 144/2/2
f 145/2/2 146/2/2 147/2/2
f 147/2/2 146/2/2 148/2/2
f 149/2/2 150/2/2 151/2/2
f 151/2/2 150/2/2 152/2/2
f 155/1/3 154/1/3 153/1/3
f 156/1/3 154/1/3 155/1/3
f 159/1/3 158/1/3 157/1/3
f 160/1/3 158/1/3 159/1/3
f 164/1/3 162/1/3 161/1/3
f 165/2/3 163/2/3 162/2/3
f 165/1/3 162/1/3 164/1/3
f 167/2/3 163/2/3 165/2/3
f 168/1/3 167/1/3 166/1/3
f 169/2/3 163/2/3 167/2/3
f 169/1/3 167/1/3 168/1/3
f 170/2/3 163/2/3 169/2/3
f 173/1/3 172/1/3 171/1/3
f 174/1/3 172/1/3 173/1/3
f 178/2/3 176/2/3 175/2/3
f 179/1/3 178/1/3 177/1/3
f 180/2/3 176/2/3 178/2/3
f 180/1/3 178/1/3 179/1/3
f 181/2/3 176/2/3 180/2/3
f 182/2/3 176/2/3 181/2/3
f 190/2/3 186/2/3 185/2/3
f 191/1/3 184/1/3 183/1/3
f 192/1/3 184/1/3 191/1/3
f 194/1/3 193/1/3 192/1/3
f 195/1/3 193/1/3 194/1/3
f 196/1/3 190/1/3 189/1/3
f 197/2/3 186/2/3 190/2/3
f 197/1/3 190/1/3 196/1/3
f 199/2/3 186/2/3 197/2/3
f 200/1/3 199/1/3 198/1/3
f 201/2/3 186/2/3 199/2/3
f 201/1/3 199/1/3 200/1/3
f 205/2/3 186/2/3 201/2/3
f 207/1/3 203/1/3 202/1/3
f 208/1/3 203/1/3 207/1/3
f 209/1/3 205/1/3 204/1/3
f 210/2/3 186/2/3 205/2/3
f 210/1/3 205/1/3 209/1/3
f 211/1/3 207/1/3 206/1/3
f 212/1/3 207/1/3 211/1/3
f 213/2/3 186/2/3 210/2/3
f 214/2/3 186/2/3 213/2/3
f 215/2/3 188/2/3 187/2/3
f 216/2/3 188/2/3 215/2/3
f 219/1/3 218/1/3 217/1/3
f 220/1/3 218/1/3 219/1/3
f 223/1/3 222/1/3 221/1/3
f 224/1/3 222/1/3 223/1/3
f 227/1/3 226/1/3 225/1/3
f 228/1/3 226/1/3 227/1/3
f 229/1/4 230/1/4 231/1/4
f 231/1/4 230/1/4 232/1/4
f 233/1/4 234/1/4 235/1/4
f 235/1/4 234/1/4 236/1/4
f 237/2/4 238/2/4 240/2/4
f 239/1/4 240/1/4 241/1/4
f 240/2/4 238/2/4 242/2/4
f 241/1/4 240/1/4 242/1/4
f 242/2/4 238/2/4 243/2/4
f 243/2/4 238/2/4 244/2/4
f 245/1/4 246/1/4 247/1/4
f 247/1/4 246/1/4 248/1/4
f 249/1/4 250/1/4 251/1/4
f 251/1/4 250/1/4 252/1/4
f 253/1/4 254/1/4 256/1/4
f 254/2/4 255/2/4 257/2/4
f 256/1/4 254/1/4 257/1/4
f 257/2/4 255/2/4 258/2/4
f 259/2/4 260/2/4 261/2/4
f 261/2/4 260/2/4 262/2/4
f 263/2/4 264/2/4 265/2/4
f 265/2/4 264/2/4 266/2/4
f 267/1/4 268/1/4 270/1/4
f 268/2/4 269/2/4 271/2/4
f 270/1/4 268/1/4 271/1/4
f 271/2/4 269/2/4 272/2/4
f 273/1/4 274/1/4 279/1/4
f 275/2/4 276/2/4 280/2/4
f 280/2/4 276/2/4 281/2/4
f 277/2/4 278/2/4 282/2/4
f 282/2/4 278/2/4 283/2/4
f 273/1/4 279/1/4 284/1/4
f 279/1/4 280/1/4 284/1/4
f 284/1/4 280/1/4 285/1/4
f 285/1/4 280/1/4 286/1/4
f 286/1/4 280/1/4 287/1/4
f 283/2/4 278/2/4 290/2/4
f 287/2/4 288/2/4 292/2/4
f 292/2/4 288/2/4 293/2/4
f 289/2/4 290/2/4 294/2/4
f 290/2/4 278/2/4 295/2/4
f 294/2/4 290/2/4 295/2/4
f 291/1/4 292/1/4 296/1/4
f 296/1/4 292/1/4 297/1/4
f 295/2/4 278/2/4 300/2/4
f 297/2/4 298/2/4 302/2/4
f 302/2/4 298/2/4 303/2/4
f 299/2/4 300/2/4 304/2/4
f 300/2/4 278/2/4 305/2/4
f 304/2/4 300/2/4 305/2/4
f 301/1/4 302/1/4 307/1/4
f 307/1/4 302/1/4 308/1/4
f 306/1/4 307/1/4 308/1/4
f 308/1/4 302/1/4 309/1/4
f 305/2/4 278/2/4 312/2/4
f 306/1/4 308/1/4 313/1/4
f 313/1/4 308/1/4 314/1/4
f 309/2/4 310/2/4 315/2/4
f 315/2/4 310/2/4 316/2/4
f 311/2/4 312/2/4 317/2/4
f 312/2/4 278/2/4 318/2/4
f 317/2/4 312/2/4 318/2/4
f 319/1/4 320/1/4 321/1/4
f 321/1/4 320/1/4 322/1/4
f 323/1/4 324/1/4 325/1/4
f 325/1/4 324/1/4 326/1/4
f 327/1/4 328/1/4 329/1/4
f 329/1/4 328/1/4 330/1/4
f 335/1/5 332/1/5 331/1/5
f 336/1/5 332/1/5 335/1/5
f 337/1/5 334/1/5 333/1/5
f 338/1/5 334/1/5 337/1/5
f 343/1/5 340/1/5 339/1/5
f 344/1/5 340/1/5 343/1/5
f 345/1/5 342/1/5 341/1/5
f 346/1/5 342/1/5 345/1/5
f 351/1/5 348/1/5 347/1/5
f 352/1/5 350/1/5 349/1/5
f 353/1/5 351/1/5 347/1/5
f 353/1/5 352/1/5 351/1/5
f 354/1/5 350/1/5 352/1/5
f 354/1/5 352/1/5 353/1/5
f 355/1/5 353/1/5 347/1/5
f 356/1/5 350/1/5 354/1/5
f 357/1/5 355/1/5 347/1/5
f 357/1/5 356/1/5 355/1/5
f 358/1/5 356/1/5 357/1/5
f 359/1/5 356/1/5 358/1/5
f 360/1/5 350/1/5 356/1/5
f 360/1/5 356/1/5 359/1/5
f 361/1/5 357/1/5 347/1/5
f 362/1/5 357/1/5 361/1/5
f 365/1/5 350/1/5 360/1/5
f 366/1/5 350/1/5 365/1/5
f 367/1/5 363/1/5 362/1/5
f 368/1/5 363/1/5 367/1/5
f 369/1/5 359/1/5 358/1/5
f 370/1/5 359/1/5 369/1/5
f 371/1/5 365/1/5 364/1/5
f 372/1/5 365/1/5 371/1/5
f 375/2/5 374/2/5 373/2/5
f 376/2/5 374/2/5 375/2/5
f 381/2/5 378/2/5 377/2/5
f 382/2/5 378/2/5 381/2/5
f 383/2/5 378/2/5 382/2/5
f 384/2/5 380/2/5 379/2/5
f 385/2/5 380/2/5 384/2/5
f 386/2/5 380/2/5 385/2/5
f 395/2/5 388/2/5 387/2/5
f 396/2/5 388/2/5 395/2/5
f 397/2/5 390/2/5 389/2/5
f 398/2/5 390/2/5 397/2/5
f 399/2/5 392/2/5 391/2/5
f 400/2/5 392/2/5 399/2/5
f 401/2/5 394/2/5 393/2/5
f 402/2/5 394/2/5 401/2/5
f 403/1/5 397/1/5 396/1/5
f 404/1/5 397/1/5 403/1/5
f 405/1/5 399/1/5 398/1/5
f 406/1/5 399/1/5 405/1/5
f 407/1/5 401/1/5 400/1/5
f 408/1/5 401/1/5 407/1/5
f 411/2/5 410/2/5 409/2/5
f 412/2/5 410/2/5 411/2/5
f 413/2/5 410/2/5 412/2/5
f 414/2/5 410/2/5 413/2/5
f 415/2/5 410/2/5 414/2/5
f 416/2/5 410/2/5 415/2/5
f 417/2/5 410/2/5 416/2/5
f 418/2/5 410/2/5 417/2/5
f 419/1/6 420/1/6 423/1/6
f 423/1/6 420/1/6 424/1/6
f 421/1/6 422/1/6 425/1/6
f 425/1/6 422/1/6 426/1/6
f 427/1/6 428/1/6 431/1/6
f 431/1/6 428/1/6 432/1/6
f 429/1/6 430/1/6 433/1/6
f 433/1/6 430/1/6 434/1/6
f 435/1/6 436/1/6 439/1/6
f 439/1/6 436/1/6 440/1/6
f 437/1/6 438/1/6 441/1/6
f 441/1/6 438/1/6 442/1/6
f 443/2/6 444/2/6 445/2/6
f 445/2/6 444/2/6 446/2/6
f 447/2/6 448/2/6 449/2/6
f 449/2/6 448/2/6 450/2/6
f 450/2/6 448/2/6 451/2/6
f 451/2/6 448/2/6 452/2/6
f 452/2/6 448/2/6 453/2/6
f 453/2/6 448/2/6 454/2/6
f 454/2/6 448/2/6 455/2/6
f 455/2/6 448/2/6 456/2/6
f 457/2/6 458/2/6 459/2/6
f 459/2/6 458/2/6 460/2/6
f 460/2/6 458/2/6 461/2/6
f 461/2/6 458/2/6 462/2/6
f 462/2/6 458/2/6 463/2/6
f 463/2/6 458/2/6 464/2/6
f 464/2/6 458/2/6 465/2/6
f 465/2/6 458/2/6 466/2/6
f 467/1/6 468/1/6 473/1/6
f 473/1/6 468/1/6 474/1/6
f 469/1/6 470/1/6 475/1/6
f 475/1/6 470/1/6 476/1/6
f 471/1/6 472/1/6 477/1/6
f 477/1/6 472/1/6 478/1/6
f 479/2/6 480/2/6 481/2/6
f 481/2/6 480/2/6 482/2/6
